<?xml version="1.0" encoding="UTF-8"?>
<!-- Generator: Adobe Illustrator 22.0.1, SVG Export Plug-In . SVG Version: 6.00 Build 0)  -->
<svg version="1.1" id="Слой_1" xmlns="http://www.w3.org/2000/svg" xmlns:xlink="http://www.w3.org/1999/xlink" x="0px" y="0px" viewBox="0 0 200 150" style="enable-background:new 0 0 200 150;" xml:space="preserve">
<style type="text/css">
	.st0{fill:none;stroke:#7A797B;}
</style>
<path id="Прямоугольник_505" class="st0" d="M51.1,120.4h49.1V139H51.1V120.4z"/>
<path id="Прямоугольник_505_копия" class="st0" d="M2,120.4h49.1V139H2V120.4z"/>
<path id="Прямоугольник_505_копия_2" class="st0" d="M149.2,120.4h49.1V139h-49.1L149.2,120.4L149.2,120.4z"/>
<path id="Прямоугольник_505_копия_2-2" class="st0" d="M100.1,120.4h49.1V139h-49.1V120.4z"/>
<path id="Прямоугольник_505_копия_4" class="st0" d="M53,83.1h49.1v18.6H53V83.1z"/>
<path id="Прямоугольник_505_копия_4-2" class="st0" d="M4,83.1h49v18.6H4V83.1z"/>
<path id="Прямоугольник_505_копия_4-3" class="st0" d="M102.1,83.1h49.1v18.6h-49.1V83.1z"/>
<path id="Прямоугольник_505_копия_3" class="st0" d="M77.6,101.7h49.1v18.6H77.6V101.7z"/>
<path id="Прямоугольник_505_копия_3-2" class="st0" d="M28.5,101.7h49.1v18.6H28.5V101.7z"/>
<path id="Прямоугольник_505_копия_3-3" class="st0" d="M126.6,101.7h49.1v18.6h-49.1V101.7z"/>
<path id="Прямоугольник_505_копия_6" class="st0" d="M76.6,27.1h49.1v18.6H76.6V27.1z"/>
<path id="Прямоугольник_505_копия_7" class="st0" d="M53,8.5h49.1v18.6H53V8.5z"/>
<path id="Прямоугольник_505_копия_6-2" class="st0" d="M27.5,27.1h49.1v18.6H27.5V27.1z"/>
<path id="Прямоугольник_505_копия_6-3" class="st0" d="M125.6,27.1h49.1v18.6h-49.1V27.1z"/>
<path id="Прямоугольник_505_копия_5" class="st0" d="M101.1,45.8h49.1v18.6h-49.1V45.8z"/>
<path id="Прямоугольник_505_копия_5-2" class="st0" d="M150.2,45.8h49.1v18.6h-49.1L150.2,45.8L150.2,45.8z"/>
<path id="Прямоугольник_505_копия_5-3" class="st0" d="M52.1,45.8h49.1v18.6H52.1V45.8z"/>
<path id="Прямоугольник_505_копия_5-4" class="st0" d="M73.6,64.4h49.1V83H73.6V64.4z"/>
<path id="Прямоугольник_505_копия_5-5" class="st0" d="M122.7,64.4h49.1V83h-49.1C122.7,83,122.7,64.4,122.7,64.4  z"/>
<path id="Прямоугольник_505_копия_5-6" class="st0" d="M24.6,64.4h49.1V83H24.6V64.4z"/>
</svg>